<?xml version="1.0" standalone="no"?>
<!DOCTYPE svg PUBLIC "-//W3C//DTD SVG 20010904//EN"
 "http://www.w3.org/TR/2001/REC-SVG-20010904/DTD/svg10.dtd">
<svg version="1.0" xmlns="http://www.w3.org/2000/svg"
 width="300.000000pt" height="300.000000pt" viewBox="0 0 300.000000 300.000000"
 preserveAspectRatio="xMidYMid meet">
<metadata>
Created by potrace 1.10, written by Peter Selinger 2001-2011
</metadata>
<g transform="translate(0.000000,300.000000) scale(0.100000,-0.100000)"
fill="#000000" stroke="none">
<path d="M1302 2635 c-483 -88 -853 -459 -937 -943 -86 -489 166 -990 611
-1217 384 -196 863 -158 1203 94 299 223 471 562 471 931 0 434 -241 829 -626
1025 -215 110 -491 152 -722 110z m461 -89 c382 -98 681 -396 784 -783 23 -87
26 -117 26 -263 0 -146 -3 -176 -26 -263 -14 -54 -48 -144 -75 -200 -45 -94
-145 -243 -186 -276 -15 -13 -18 -12 -23 10 -11 42 -69 146 -117 208 -84 109
-242 214 -366 244 -27 6 -50 14 -49 17 0 3 21 19 47 35 26 17 68 58 93 92 144
190 117 467 -60 625 -176 157 -444 156 -622 -1 -177 -156 -204 -434 -60 -624
25 -34 67 -75 93 -92 26 -16 47 -32 47 -35 1 -3 -22 -11 -49 -17 -124 -30
-282 -135 -366 -244 -48 -62 -106 -166 -117 -208 -5 -22 -8 -23 -23 -10 -41
33 -141 182 -186 276 -27 56 -61 146 -75 200 -23 87 -26 117 -26 263 0 146 3
176 26 263 113 425 460 738 893 807 103 16 307 4 417 -24z m-140 -526 c58 -17
157 -90 193 -143 57 -83 76 -150 72 -248 -3 -72 -9 -97 -36 -152 -41 -84 -129
-167 -209 -198 -81 -32 -205 -32 -286 0 -81 32 -168 114 -209 199 -31 62 -33
74 -33 167 0 91 3 106 32 167 49 104 140 182 251 214 52 15 165 12 225 -6z
m-273 -785 c9 -10 4 -15 -20 -20 -37 -8 -41 -6 -34 22 6 22 35 21 54 -2z m356
-22 c-3 -3 -18 -2 -35 2 -33 7 -32 21 3 34 16 7 23 4 29 -12 4 -11 5 -22 3
-24z m8 -48 c185 -39 363 -177 444 -345 65 -134 66 -127 -26 -193 -102 -73
-246 -141 -369 -174 -87 -23 -117 -26 -263 -26 -146 0 -176 3 -263 26 -123 33
-267 101 -369 174 -92 66 -91 59 -26 193 57 119 170 231 291 289 47 23 114 48
149 56 87 19 343 19 432 0z"/>
</g>
</svg>
